PathFileType        4      (X/Y/Z)      C:\Users\pc\Desktop\IMUTRC\Sujet_01\Sujet_01_Tpose.trc         
DataRate	CameraRate	NumFrames	NumMarkers	Units	OrigDataRate	OrigDataStartFrame	OrigNumFrames
60.0	60.0	4	64	mm	60.0	72	114
Frame#	Time	pHipOrigin			pRightASI			pLeftASI			pRightCSI			pLeftCSI			pRightIschialTub			pLeftIschialTub			pSacrum			pL5SpinalProcess			pL3SpinalProcess			pT12SpinalProcess			pIJ			pT4SpinalProcess			pT8SpinalProcess			pPX			pC7SpinalProcess			pTopOfHead			pRightAuricularis			pLeftAuricularis			pBackOfHead			pRightAcromion			pLeftAcromion			pRightArmLatEpicondyle			pRightArmMedEpicondyle			pLeftArmLatEpicondyle			pLeftArmMedEpicondyle			pRightUlnarStyloid			pRightRadialStyloid			pRightOlecranon			pLeftUlnarStyloid			pLeftRadialStyloid			pLeftOlecranon			pRightTopOfHand			pRightPinky			pRightBallHand			pLeftTopOfHand			pLeftPinky			pLeftBallHand			pRightGreaterTrochanter			pRightKneeLatEpicondyle			pRightKneeMedEpicondyle			pRightPatella			pLeftGreaterTrochanter			pLeftKneeLatEpicondyle			pLeftKneeMedEpicondyle			pLeftPatella			pRightTibialTub			pRightLatMalleolus			pRightMedMalleolus			pLeftTibialTub			pLeftLatMalleolus			pLeftMedMalleolus			pRightHeelFoot			pRightFirstMetatarsal			pRightFifthMetatarsal			pRightPivotFoot			pRightHeelCenter			pRightToe			pLeftHeelFoot			pLeftFirstMetatarsal			pLeftFifthMetatarsal			pLeftPivotFoot			pLeftHeelCenter			pLeftToe			
		X1	Y1	Z1	X2	Y2	Z2	X3	Y3	Z3	X4	Y4	Z4	X5	Y5	Z5	X6	Y6	Z6	X7	Y7	Z7	X8	Y8	Z8	X9	Y9	Z9	X10	Y10	Z10	X11	Y11	Z11	X12	Y12	Z12	X13	Y13	Z13	X14	Y14	Z14	X15	Y15	Z15	X16	Y16	Z16	X17	Y17	Z17	X18	Y18	Z18	X19	Y19	Z19	X20	Y20	Z20	X21	Y21	Z21	X22	Y22	Z22	X23	Y23	Z23	X24	Y24	Z24	X25	Y25	Z25	X26	Y26	Z26	X27	Y27	Z27	X28	Y28	Z28	X29	Y29	Z29	X30	Y30	Z30	X31	Y31	Z31	X32	Y32	Z32	X33	Y33	Z33	X34	Y34	Z34	X35	Y35	Z35	X36	Y36	Z36	X37	Y37	Z37	X38	Y38	Z38	X39	Y39	Z39	X40	Y40	Z40	X41	Y41	Z41	X42	Y42	Z42	X43	Y43	Z43	X44	Y44	Z44	X45	Y45	Z45	X46	Y46	Z46	X47	Y47	Z47	X48	Y48	Z48	X49	Y49	Z49	X50	Y50	Z50	X51	Y51	Z51	X52	Y52	Z52	X53	Y53	Z53	X54	Y54	Z54	X55	Y55	Z55	X56	Y56	Z56	X57	Y57	Z57	X58	Y58	Z58	X59	Y59	Z59	X60	Y60	Z60	X61	Y61	Z61	X62	Y62	Z62	X63	Y63	Z63	X64	Y64	Z64	
72	1.183	0.0	1249.97542	7.653891985579342E-14	28.623469999999983	1347.00519	131.9579600000001	71.49562000000002	1348.07699	-113.6111999999999	-14.500870000000013	1403.62165	102.19964000000009	20.74256000000001	1404.50431	-99.74079999999991	-53.148860000000006	1192.09802	42.493870000000065	-35.55866999999999	1192.53935	-58.507879999999936	-62.35376	1262.45878	-10.844129999999929	-39.15236	1352.80554	-6.619959999999922	-33.22592	1457.14879	-5.737299999999916	-34.67601	1552.60238	-6.49386999999991	113.67425	1740.42023	20.49037000000012	-23.32749	1730.20657	-5.674259999999897	-33.79334	1647.80377	-6.998249999999903	103.96497	1627.31341	19.607700000000115	-17.14886	1778.05946	-3.1523599999998932	40.79159	2017.51304	10.08757000000013	42.683009999999996	1920.9246	72.7565600000001	44.95271000000001	1925.464	-58.94920999999987	-7.943960000000001	1921.55507	5.989490000000116	-25.218910000000022	1745.08573	176.4063000000001	27.866900000000022	1764.2521	-172.8125999999999	-85.17688000000004	1622.39572	376.5183700000001	-39.78284000000004	1593.45702	372.92468000000014	45.33100000000005	1652.40622	-390.8300999999999	78.61996000000005	1614.51481	-371.7898199999999	-66.83012000000006	1512.88259	562.5709000000002	-91.85989000000006	1545.98241	577.1348200000001	-51.32049000000004	1594.02444	364.0350100000001	102.57793000000007	1537.34493	-564.3362199999999	91.73380000000007	1574.73197	-584.7635399999999	65.44308000000004	1617.66717	-368.3222199999999	-173.19088000000008	1464.27313	694.2136300000001	-105.35201000000009	1469.50606	650.6479500000002	-80.07005000000007	1512.12602	604.1821100000001	87.19439000000008	1509.0367	-736.4553099999999	105.73029000000008	1496.04896	-658.8440999999999	110.96322000000008	1533.81429	-602.6689699999998	-32.59544000000002	1219.77577	140.59544000000008	-51.320490000000014	876.29418	105.28896000000006	-31.838880000000003	876.60941	40.98073000000005	-4.91769000000001	876.04199	81.89842000000006	6.935200000000018	1219.64968	-142.54990999999993	-10.087569999999987	876.10504	-107.24342999999995	-2.0805599999999953	877.30293	-40.539399999999944	31.52364000000001	877.05075	-76.16111999999994	6.556919999999989	839.28542	86.24868000000005	-91.16637000000001	472.22415	94.94921000000001	-73.57618	471.08929	37.38704000000002	45.520140000000005	842.75302	-81.89841999999994	-29.316989999999983	474.17861	-135.99298999999996	-21.12083999999999	468.6935	-76.66549999999997	-117.96147	331.18737	47.47460000000001	61.40804999999999	335.03326	98.41681000000003	18.40980999999998	335.66373	175.39754000000002	62.35375999999998	335.85287	148.03502000000003	-80.19614000000001	329.86338	68.5324	126.47284999999997	341.02275	183.78283000000005	-61.66023999999999	330.61995	-92.86865	124.32924000000001	339.25743	-82.97021999999997	108.81961000000001	334.90716	-169.72327999999996	141.41505000000004	337.99648	-129.62520999999995	-19.10332999999999	329.92643	-100.43431999999999	213.54115000000002	344.11207	-142.86513999999994	
73	1.2	0.0	1249.97542	7.653891985579342E-14	28.68650999999998	1347.00519	132.02101000000008	71.55867000000002	1348.07699	-113.6111999999999	-14.500870000000013	1403.62165	102.19964000000009	20.80560000000001	1404.50431	-99.74079999999991	-53.21191000000001	1192.09802	42.493870000000065	-35.55866999999999	1192.53935	-58.507879999999936	-62.35376	1262.45878	-10.844129999999929	-39.08932	1352.80554	-6.619959999999922	-33.16287	1457.14879	-5.737299999999916	-34.61296	1552.60238	-6.430819999999909	113.7373	1740.35718	20.55341000000012	-23.2014	1730.20657	-5.611209999999897	-33.7303	1647.80377	-6.935199999999903	104.02802	1627.31341	19.607700000000115	-17.08581	1777.99641	-3.0893199999998933	40.72854	2017.51304	10.27671000000013	42.493869999999994	1920.9246	72.94571000000012	45.141850000000005	1925.464	-58.76006999999987	-7.943960000000001	1921.49203	5.989490000000116	-25.09282000000002	1745.02268	176.4693400000001	27.929950000000023	1764.2521	-172.74954999999989	-84.98774000000004	1622.20658	376.5814200000001	-39.593690000000045	1593.39397	372.98772000000014	45.39404000000005	1652.46927	-390.7670599999999	78.68301000000004	1614.57785	-371.7267799999999	-66.64098000000007	1512.56735	562.5709000000002	-91.60770000000007	1545.66718	577.1348200000001	-51.06830000000004	1593.89835	364.0350100000001	102.70402000000007	1537.47103	-564.2731799999999	91.79684000000007	1574.92111	-584.7004999999999	65.56917000000004	1617.73022	-368.2591799999999	-172.74955000000008	1463.8318	694.2766700000001	-104.97373000000009	1469.19082	650.6479500000002	-79.75481000000008	1511.87383	604.1821100000001	87.32049000000009	1509.22585	-736.4553099999999	105.79334000000009	1496.17506	-658.8440999999999	111.02626000000006	1534.00343	-602.6689699999998	-32.59544000000002	1219.77577	140.59544000000008	-51.44658000000001	876.29418	105.28896000000006	-31.901920000000004	876.60941	40.98073000000005	-5.04378000000001	876.04199	81.89842000000006	6.935200000000018	1219.64968	-142.54990999999993	-10.213659999999988	876.10504	-107.24342999999995	-2.206649999999995	877.30293	-40.539399999999944	31.39755000000001	877.05075	-76.16111999999994	6.49386999999999	839.28542	86.24868000000005	-91.35551000000001	472.22415	94.88616000000002	-73.76532	471.08929	37.38704000000002	45.394040000000004	842.68998	-81.89841999999994	-29.44307999999998	474.17861	-135.99298999999996	-21.24692999999999	468.6935	-76.66549999999997	-118.15061	331.25042	47.47460000000001	61.21890999999999	335.03326	98.35376000000002	18.220659999999977	335.66373	175.39754000000002	62.16461999999998	335.85287	148.03502000000003	-80.38529000000001	329.92643	68.5324	126.28370999999997	341.02275	183.78283000000005	-61.84937999999998	330.683	-92.86865	124.20315000000001	339.25743	-82.97021999999997	108.63047000000002	334.90716	-169.72327999999996	141.22591000000003	337.99648	-129.62520999999995	-19.29246999999999	329.92643	-100.43431999999999	213.35200000000003	344.11207	-142.86513999999994	
74	1.217	0.0	1249.97542	7.653891985579342E-14	28.68650999999998	1347.00519	131.9579600000001	71.55867000000002	1348.07699	-113.6111999999999	-14.437830000000012	1403.62165	102.19964000000009	20.80560000000001	1404.50431	-99.74079999999991	-53.21191000000001	1192.09802	42.493870000000065	-35.55866999999999	1192.53935	-58.507879999999936	-62.35376	1262.52183	-10.844129999999929	-39.08932	1352.80554	-6.619959999999922	-33.16287	1457.14879	-5.737299999999916	-34.54991	1552.60238	-6.430819999999909	113.86339	1740.35718	20.61646000000012	-23.13835	1730.20657	-5.548159999999897	-33.6042	1647.80377	-6.872149999999904	104.09106	1627.25036	19.670750000000115	-16.95972	1777.99641	-3.026269999999893	40.60245	2017.51304	10.52890000000013	42.36776999999999	1920.86155	73.13485000000011	45.267950000000006	1925.52705	-58.57092999999987	-7.943960000000001	1921.49203	6.115590000000116	-24.96672000000002	1744.95963	176.5954400000001	28.05604000000002	1764.31515	-172.68650999999988	-84.79859000000005	1622.08048	376.6444700000001	-39.40455000000004	1593.26787	372.98772000000014	45.45709000000005	1652.53232	-390.7670599999999	78.74606000000004	1614.6409	-371.7267799999999	-66.45184000000008	1512.37821	562.5078500000001	-91.48161000000007	1545.41499	577.1348200000001	-50.94220000000004	1593.77225	364.0980600000001	102.76707000000007	1537.66017	-564.3362199999999	91.79684000000007	1575.04721	-584.7004999999999	65.63222000000005	1617.79327	-368.19612999999987	-172.49736000000007	1463.51657	694.3397200000002	-104.72154000000009	1468.93863	650.6479500000002	-79.62872000000007	1511.5586	604.1190600000001	87.38353000000008	1509.35194	-736.4553099999999	105.91943000000009	1496.3642	-658.8440999999999	111.08931000000007	1534.12952	-602.6689699999998	-32.658490000000015	1219.77577	140.59544000000008	-51.57268000000001	876.35723	105.22591000000006	-32.028020000000005	876.60941	40.91769000000005	-5.10683000000001	876.04199	81.89842000000006	6.872150000000018	1219.64968	-142.54990999999993	-10.339749999999988	876.10504	-107.24342999999995	-2.332749999999995	877.30293	-40.539399999999944	31.271450000000012	877.05075	-76.16111999999994	6.367779999999989	839.28542	86.24868000000005	-91.54465000000002	472.22415	94.88616000000002	-73.95446	471.08929	37.38704000000002	45.267950000000006	842.68998	-81.89841999999994	-29.632219999999982	474.17861	-135.99298999999996	-21.43607999999999	468.6935	-76.66549999999997	-118.33975	331.25042	47.47460000000001	61.029769999999985	335.03326	98.35376000000002	18.03151999999998	335.66373	175.39754000000002	61.975479999999976	335.85287	148.03502000000003	-80.57443000000002	329.92643	68.5324	126.09455999999997	341.02275	183.78283000000005	-62.03852999999999	330.683	-92.86865	124.01400000000001	339.25743	-82.97021999999997	108.44133000000001	334.90716	-169.72327999999996	141.03677000000002	337.99648	-129.62520999999995	-19.48160999999999	329.92643	-100.43431999999999	213.16286000000002	344.11207	-142.86513999999994	
75	1.233	0.0	1249.97542	7.653891985579342E-14	28.68650999999998	1347.00519	131.9579600000001	71.55867000000002	1348.07699	-113.6111999999999	-14.437830000000012	1403.62165	102.19964000000009	20.80560000000001	1404.50431	-99.74079999999991	-53.21191000000001	1192.09802	42.493870000000065	-35.55866999999999	1192.53935	-58.507879999999936	-62.35376	1262.52183	-10.844129999999929	-39.08932	1352.80554	-6.619959999999922	-33.09982	1457.14879	-5.737299999999916	-34.54991	1552.60238	-6.367779999999909	113.92644	1740.29414	20.742560000000122	-23.01226	1730.20657	-5.485109999999897	-33.54115	1647.80377	-6.872149999999904	104.15411	1627.25036	19.733800000000112	-16.89667	1777.99641	-2.9632199999998936	40.47636	2017.51304	10.78109000000013	42.241679999999995	1920.86155	73.32399000000011	45.394040000000004	1925.5901	-58.38177999999987	-7.943960000000001	1921.42898	6.178630000000116	-24.840630000000022	1744.95963	176.6584900000001	28.18214000000002	1764.31515	-172.62345999999988	-84.67250000000004	1621.95439	376.6444700000001	-39.278460000000045	1593.14178	373.0507700000001	45.52014000000005	1652.65841	-390.70400999999987	78.80910000000004	1614.767	-371.7267799999999	-66.38879000000007	1512.12602	562.5078500000001	-91.41856000000007	1545.1628	577.1348200000001	-50.816110000000045	1593.64616	364.0980600000001	102.76707000000007	1537.78626	-564.3362199999999	91.79684000000007	1575.23635	-584.7004999999999	65.69527000000004	1617.91936	-368.19612999999987	-172.3082200000001	1463.26438	694.3397200000002	-104.59544000000008	1468.68644	650.5849100000001	-79.50262000000006	1511.36945	604.1190600000001	87.44658000000008	1509.60413	-736.4553099999999	105.98248000000008	1496.55334	-658.9071499999999	111.08931000000007	1534.31866	-602.6689699999998	-32.658490000000015	1219.77577	140.59544000000008	-51.63572000000001	876.35723	105.22591000000006	-32.15411000000001	876.60941	40.91769000000005	-5.23292000000001	876.04199	81.89842000000006	6.872150000000018	1219.64968	-142.54990999999993	-10.528899999999988	876.10504	-107.24342999999995	-2.458839999999995	877.30293	-40.539399999999944	31.14536000000001	876.9877	-76.16111999999994	6.241679999999989	839.28542	86.18564000000006	-91.73380000000002	472.28719	94.88616000000002	-74.1436	471.15234	37.38704000000002	45.078810000000004	842.68998	-81.89841999999994	-29.82135999999998	474.17861	-135.99298999999996	-21.625219999999988	468.6935	-76.66549999999997	-118.52889	331.25042	47.41156000000001	60.84062999999998	335.03326	98.35376000000002	17.842379999999977	335.66373	175.39754000000002	61.72328999999998	335.85287	148.03502000000003	-80.82662000000002	329.92643	68.5324	125.84237999999998	341.02275	183.78283000000005	-62.22766999999999	330.683	-92.86865	123.82486000000002	339.25743	-82.97021999999997	108.25218000000001	334.90716	-169.72327999999996	140.84763000000004	337.99648	-129.62520999999995	-19.67074999999999	329.92643	-100.43431999999999	212.97372000000001	344.11207	-142.86513999999994	
